#N canvas 1 509 641 464 10;
#X obj 128 102 sig~;
#X msg 125 64 0;
#X msg 219 65 1;
#X msg 35 63 -1;
#X msg 176 101 status;
#X floatatom 130 296 8 0 0 0 - - -, f 8;
#X msg 209 124 bipolar;
#X msg 209 146 absolute;
#X msg 210 167 rms;
#X obj 130 255 cyclone/Snapshot~ 100;
#X msg 163 64 0.707;
#X msg 77 64 -0.707;
#X obj 316 52 tgl 15 0 empty empty empty 17 7 0 10 -262144 -1 -1 1
1;
#X obj 293 6 bng 15 250 50 0 empty empty empty 17 7 0 10 -262144 -1
-1;
#X msg 60 117 500;
#X msg 322 4 0;
#X obj 59 179 vsl 15 128 -1 1 0 0 empty empty empty 0 -9 0 10 -262144
-1 -1 3963 1;
#X msg 60 137 10000;
#X floatatom 438 300 8 0 0 0 - - -, f 8;
#X obj 438 260 cyclone/Snapshot~ 100;
#X obj 375 186 vsl 15 128 -1 1 0 0 empty empty empty 0 -9 0 10 -262144
-1 -1 9749 1;
#X msg 523 103 status;
#X msg 556 126 bipolar;
#X msg 556 148 absolute;
#X msg 557 169 rms;
#X obj 129 222 cyclone/average2~ 10000 bipolar;
#X msg 60 96 100;
#X obj 101 321 cyclone/Scope~ 130 130 256 3 128 -1 1 0 0 0 0 102 255
51 135 135 135 0;
#X obj 409 323 cyclone/Scope~ 130 130 256 3 128 -1 1 0 0 0 0 102 255
51 135 135 135 0;
#X msg 400 101 500;
#X msg 400 80 100;
#X msg 400 121 1000;
#X obj 316 28 metro 250;
#X msg 145 25 status;
#X msg 464 45 status;
#X obj 316 77 t f b;
#X obj 311 121 - 1;
#X obj 313 100 * 1.5;
#X obj 437 228 cyclone/average2~ 10000 bipolar;
#X msg 402 149 5000;
#X obj 405 27 phasor~ 0.3;
#X connect 0 0 25 0;
#X connect 1 0 0 0;
#X connect 2 0 0 0;
#X connect 3 0 0 0;
#X connect 4 0 25 0;
#X connect 6 0 25 0;
#X connect 7 0 25 0;
#X connect 8 0 25 0;
#X connect 9 0 5 0;
#X connect 9 0 16 0;
#X connect 10 0 0 0;
#X connect 11 0 0 0;
#X connect 12 0 35 0;
#X connect 13 0 32 0;
#X connect 14 0 25 0;
#X connect 15 0 32 0;
#X connect 17 0 25 0;
#X connect 19 0 18 0;
#X connect 19 0 20 0;
#X connect 21 0 38 0;
#X connect 22 0 38 0;
#X connect 23 0 38 0;
#X connect 24 0 38 0;
#X connect 25 0 9 0;
#X connect 25 0 27 0;
#X connect 26 0 25 0;
#X connect 29 0 38 0;
#X connect 30 0 38 0;
#X connect 31 0 38 0;
#X connect 32 0 12 0;
#X connect 33 0 25 0;
#X connect 34 0 38 0;
#X connect 35 0 37 0;
#X connect 36 0 0 0;
#X connect 37 0 36 0;
#X connect 38 0 19 0;
#X connect 38 0 28 0;
#X connect 39 0 38 0;
#X connect 40 0 38 0;
